#N canvas -8 -8 1366 685 12;
#X obj 171 404 makenote;
#X obj 174 468 noteout;
#X obj 312 203 nbx 5 14 -1e+037 1e+037 0 0 empty empty empty 0 -8 0
10 -262144 -1 -1 -7 256;
#X obj 101 333 print;
#X obj 166 82 nbx 5 14 -1e+037 1e+037 0 0 empty empty empty 0 -8 0
10 -262144 -1 -1 0 256;
#X obj 102 197 random 27;
#X obj 302 249 random 37;
#X msg 413 175 \; Times 0 500 1000 2000 1000 500;
#X obj 297 405 random 5;
#X obj 299 459 tabread;
#X msg 376 416 set Times;
#X obj 563 457 drunk;
#X msg 563 404 11 22 4;
#X obj 563 500 tabread;
#X obj 563 543 makenote;
#X obj 30 201 send m;
#X obj 335 370 send v;
#X obj 289 505 send t;
#X obj 486 417 receive m;
#X obj 677 510 receive v;
#X obj 757 511 receive t;
#X obj 302 326 + 80;
#X obj 102 129 metro 100;
#X obj 92 73 tgl 15 0 empty empty empty 17 7 0 10 -262144 -1 -1 0 1
;
#X floatatom 102 231 5 0 0 0 - - -;
#X floatatom 302 287 5 0 0 0 - - -;
#X obj 413 141 table Times;
#X floatatom 509 500 5 0 0 0 - - -;
#X obj 486 454 bng 15 250 50 0 empty empty empty 17 7 0 10 -262144
-1 -1;
#X obj 563 372 loadbang;
#X obj 414 20 table Bminor;
#X obj 554 258 table BminorBass;
#X msg 628 450 set BminorBass;
#X msg 206 199 set Bminor;
#X obj 163 260 tabread Bminor;
#X msg 411 82 \; Bminor 0 59 61 62 64 66 67 69 71 73 74 76 78 79 81
83 85 86 88 90 91 93 95 97 98 100 102 103 105 107;
#X msg 554 323 \; BminorBass 0 47 49 50 52 54 55 57 59 61 62 64 66
67 69 71;
#X obj 563 585 noteout;
#X obj 558 287 loadbang;
#X obj 687 406 loadbang;
#X connect 0 0 1 0;
#X connect 0 1 1 1;
#X connect 4 0 22 1;
#X connect 5 0 24 0;
#X connect 6 0 25 0;
#X connect 8 0 9 0;
#X connect 9 0 0 2;
#X connect 9 0 17 0;
#X connect 10 0 9 0;
#X connect 11 0 13 0;
#X connect 11 0 27 0;
#X connect 12 0 11 0;
#X connect 13 0 14 0;
#X connect 14 0 37 0;
#X connect 14 1 37 1;
#X connect 18 0 11 0;
#X connect 18 0 28 0;
#X connect 19 0 14 1;
#X connect 20 0 14 2;
#X connect 21 0 0 1;
#X connect 21 0 16 0;
#X connect 22 0 5 0;
#X connect 22 0 6 0;
#X connect 22 0 8 0;
#X connect 22 0 15 0;
#X connect 23 0 22 0;
#X connect 24 0 34 0;
#X connect 25 0 21 0;
#X connect 29 0 12 0;
#X connect 32 0 13 0;
#X connect 33 0 34 0;
#X connect 34 0 0 0;
#X connect 34 0 3 0;
#X connect 38 0 36 0;
#X connect 39 0 32 0;
