#N canvas 34 43 871 579 12;
#X obj 171 404 makenote;
#X obj 174 468 noteout;
#X obj 312 203 nbx 5 14 -1e+037 1e+037 0 0 empty empty empty 0 -8 0
10 -262144 -1 -1 0 256;
#X obj 101 333 print;
#X obj 166 82 nbx 5 14 -1e+037 1e+037 0 0 empty empty empty 0 -8 0
10 -262144 -1 -1 0 256;
#X obj 102 197 random 27;
#X obj 302 249 random 37;
#X msg 413 175 \; Times 0 500 1000 2000 1000 500;
#X obj 297 405 random 5;
#X obj 299 459 tabread;
#X msg 376 416 set Times;
#X obj 563 457 drunk;
#X msg 563 404 11 22 4;
#X obj 563 500 tabread;
#X obj 563 543 makenote;
#X obj 30 201 send m;
#X obj 335 370 send v;
#X obj 289 505 send t;
#X obj 486 417 receive m;
#X obj 677 510 receive v;
#X obj 757 511 receive t;
#X obj 302 326 + 80;
#X obj 102 129 metro 100;
#X obj 92 73 tgl 15 0 empty empty empty 17 7 0 10 -262144 -1 -1 1 1
;
#X floatatom 102 231 5 0 0 0 - - -;
#X floatatom 302 287 5 0 0 0 - - -;
#X obj 413 141 table Times;
#X floatatom 509 500 5 0 0 0 - - -;
#X obj 486 454 bng 15 250 50 0 empty empty empty 17 7 0 10 -262144
-1 -1;
#X obj 563 372 loadbang;
#X obj 414 20 table Gmajor;
#X msg 628 450 set GmajorBass;
#X msg 413 58 \; Gmajor 0 55 57 59 60 62 64 66 67 69 71 72 74 76 78
79 81 83 84 86 88 90 91 93 95 96 98 100 102 103;
#X obj 552 259 table GmajorBass;
#X msg 206 199 set Gmajor;
#X msg 555 324 \; GmajorBass 0 43 45 47 48 50 53 54 55 57 59 60 62
64 66 67;
#X obj 163 261 tabread Gmajor;
#X obj 652 401 loadbang;
#X obj 555 290 loadbang;
#X obj 563 585 noteout;
#X connect 0 0 1 0;
#X connect 0 1 1 1;
#X connect 4 0 22 1;
#X connect 5 0 24 0;
#X connect 6 0 25 0;
#X connect 8 0 9 0;
#X connect 9 0 0 2;
#X connect 9 0 17 0;
#X connect 10 0 9 0;
#X connect 11 0 13 0;
#X connect 11 0 27 0;
#X connect 12 0 11 0;
#X connect 13 0 14 0;
#X connect 14 0 39 0;
#X connect 14 1 39 1;
#X connect 18 0 11 0;
#X connect 18 0 28 0;
#X connect 19 0 14 1;
#X connect 20 0 14 2;
#X connect 21 0 0 1;
#X connect 21 0 16 0;
#X connect 22 0 5 0;
#X connect 22 0 6 0;
#X connect 22 0 8 0;
#X connect 22 0 15 0;
#X connect 23 0 22 0;
#X connect 24 0 36 0;
#X connect 25 0 21 0;
#X connect 29 0 12 0;
#X connect 31 0 13 0;
#X connect 34 0 36 0;
#X connect 36 0 0 0;
#X connect 36 0 3 0;
#X connect 37 0 31 0;
#X connect 38 0 35 0;
