#N canvas 675 0 682 676 12;
#X obj 171 404 makenote;
#X obj 174 468 noteout;
#X obj 312 203 nbx 5 14 -1e+037 1e+037 0 0 empty empty empty 0 -8 0
10 -262144 -1 -1 0 256;
#X obj 101 333 print;
#X obj 166 82 nbx 5 14 -1e+037 1e+037 0 0 empty empty empty 0 -8 0
10 -262144 -1 -1 0 256;
#X msg 413 58 \; Cmajor 0 48 50 52 53 55 57 59 60 62 64 65 67 69 71
72 74 76 77 79 81 83 84 86 88 89 91 93 95 96;
#X msg 206 199 set Cmajor;
#X obj 102 197 random 27;
#X obj 302 249 random 37;
#X msg 413 175 \; Times 0 500 1000 2000 1000 500;
#X obj 297 405 random 5;
#X obj 299 459 tabread;
#X msg 376 416 set Times;
#X msg 555 324 \; CmajorBass 0 36 38 40 41 43 45 47 48 50 52 53 55
57 59 60;
#X obj 563 457 drunk;
#X msg 563 404 11 22 4;
#X obj 563 500 tabread;
#X msg 628 450 set CmajorBass;
#X obj 563 543 makenote;
#X obj 30 201 send m;
#X obj 335 370 send v;
#X obj 289 505 send t;
#X obj 486 417 receive m;
#X obj 677 510 receive v;
#X obj 757 511 receive t;
#X obj 302 326 + 80;
#X obj 102 129 metro 100;
#X obj 92 73 tgl 15 0 empty empty empty 17 7 0 10 -262144 -1 -1 0 1
;
#X floatatom 102 231 5 0 0 0 - - -;
#X floatatom 302 287 5 0 0 0 - - -;
#X obj 444 10 table Cmajor;
#X obj 163 261 tabread Cmajor;
#X obj 413 141 table Times;
#X obj 556 258 table CmajorBass;
#X floatatom 509 500 5 0 0 0 - - -;
#X obj 486 454 bng 15 250 50 0 empty empty empty 17 7 0 10 -262144
-1 -1;
#X obj 556 289 loadbang;
#X obj 563 585 noteout;
#X obj 563 372 loadbang;
#X obj 658 396 loadbang;
#X connect 0 0 1 0;
#X connect 0 1 1 1;
#X connect 4 0 26 1;
#X connect 6 0 31 0;
#X connect 7 0 28 0;
#X connect 8 0 29 0;
#X connect 10 0 11 0;
#X connect 11 0 0 2;
#X connect 11 0 21 0;
#X connect 12 0 11 0;
#X connect 14 0 16 0;
#X connect 14 0 34 0;
#X connect 15 0 14 0;
#X connect 16 0 18 0;
#X connect 17 0 16 0;
#X connect 18 0 37 0;
#X connect 18 1 37 1;
#X connect 22 0 14 0;
#X connect 22 0 35 0;
#X connect 23 0 18 1;
#X connect 24 0 18 2;
#X connect 25 0 0 1;
#X connect 25 0 20 0;
#X connect 26 0 7 0;
#X connect 26 0 8 0;
#X connect 26 0 10 0;
#X connect 26 0 19 0;
#X connect 27 0 26 0;
#X connect 28 0 31 0;
#X connect 29 0 25 0;
#X connect 31 0 0 0;
#X connect 31 0 3 0;
#X connect 36 0 13 0;
#X connect 38 0 15 0;
#X connect 39 0 17 0;
